<svg aria-hidden="true" style="position: absolute; width: 0; height: 0; overflow: hidden;" version="1.1" xmlns="http://www.w3.org/2000/svg" xmlns:xlink="http://www.w3.org/1999/xlink">
<defs>
<symbol id="icon-heart" viewBox="0 0 32 32">
<path d="M10.025 2.667c-0.027-0-0.059-0.001-0.092-0.001-4.751 0-8.603 3.852-8.603 8.603 0 2.436 1.012 4.635 2.639 6.2l0.003 0.003 0.852 0.86 1.155 1.147 9.133 9.133c0.241 0.241 0.574 0.39 0.942 0.39s0.701-0.149 0.942-0.39l11.149-11.151c1.517-1.55 2.452-3.673 2.452-6.015 0-4.751-3.852-8.603-8.603-8.603-2.305 0-4.399 0.907-5.944 2.383l0.003-0.003c-1.54-1.558-3.668-2.531-6.024-2.557l-0.005-0z"></path>
</symbol>
<symbol id="icon-trash" viewBox="0 0 32 32">
<path d="M32 4h-8c0-2.211-1.789-4-4-4h-8c-2.211 0-4 1.789-4 4h-8v4h4v18c0 3.312 2.688 6 6 6h12c3.312 0 6-2.688 6-6v-18h4v-4zM24 26c0 1.102-0.898 2-2 2h-12c-1.102 0-2-0.898-2-2v-18h16v18zM10 22c0-1.105 0.895-2 2-2s2 0.895 2 2c0 1.105-0.895 2-2 2s-2-0.895-2-2zM10 14c0-1.105 0.895-2 2-2s2 0.895 2 2c0 1.105-0.895 2-2 2s-2-0.895-2-2zM18 22c0-1.105 0.895-2 2-2s2 0.895 2 2c0 1.105-0.895 2-2 2s-2-0.895-2-2zM18 14c0-1.105 0.895-2 2-2s2 0.895 2 2c0 1.105-0.895 2-2 2s-2-0.895-2-2z"></path>
</symbol>
</defs>
</svg>
